<?xml version="1.0" encoding="UTF-8"?>
<svg id="Capa_2" data-name="Capa 2" xmlns="http://www.w3.org/2000/svg" viewBox="0 0 246.99 329.56">
  <defs>
    <style>
      .cls-1 {
        fill: #eff6f1;
      }

      .cls-2 {
        fill: #00af66;
      }
    </style>
  </defs>
  <g id="Capa_2-2" data-name="Capa 2">
    <g>
      <path class="cls-1" d="m131.07,189.63c-3.19.46-26.46,3.45-45.17-13.55-21.7-19.73-17.39-48.32-17.05-50.32-19.1-19.2-38.21-38.4-57.31-57.59C-1.39,100.58-1.04,125.51,1.19,141.41c4.76,33.84,21.79,53.27,85.55,139.79,15.6,21.16,28.05,38.28,35.37,48.36l62.76-84.71c-17.93-18.4-35.87-36.81-53.8-55.22Zm2.13,50.74c-.08.98-.17,1.97-.26,2.97-.36,2.86-.8,5.68-1.3,8.49-.5,2.8-.98,5.62-1.43,8.45-.47,2.92-.87,5.84-1.2,8.75-.33,2.91-.43,5.84-.3,8.78.04,1.01.14,2.03.3,3.05.17,1.03.44,2.02.8,3,.08.15.06.24-.06.27-.28.07-.73-.04-1.35-.31-.62-.27-1.25-.62-1.88-1.04-.64-.41-1.22-.84-1.75-1.26-.53-.42-.82-.75-.88-.99-.58-1.48-.92-2.99-1.05-4.53-.12-1.54-.18-3.08-.17-4.61.01-1.16.12-2.46.31-3.91.2-1.45.46-2.99.78-4.63.32-1.63.68-3.29,1.07-4.98.39-1.69.79-3.34,1.18-4.95.39-1.6.75-3.13,1.08-4.57.32-1.44.58-2.72.78-3.83-.54,1.11-1.21,2.57-2.03,4.36-.81,1.8-1.67,3.65-2.59,5.55-.91,1.91-1.81,3.74-2.69,5.51-.89,1.77-1.65,3.18-2.28,4.23-.6,1.04-1.35,2.24-2.24,3.61-.9,1.37-1.89,2.7-2.98,3.99-1.09,1.29-2.23,2.43-3.43,3.42-1.2,1-2.43,1.65-3.67,1.96-.76.18-1.61.17-2.53-.05-.93-.22-1.83-.55-2.7-1-.88-.44-1.7-.95-2.48-1.52-.78-.58-1.42-1.12-1.93-1.63-1.32-1.38-2.26-2.96-2.82-4.73-.57-1.78-.97-3.57-1.2-5.39-.53-4.08-.6-8.44-.19-13.1.41-4.65,1.24-9.24,2.49-13.78,1.24-4.54,2.89-8.87,4.94-12.99,2.05-4.11,4.43-7.68,7.14-10.68.49-.59,1.07-1.21,1.74-1.87.67-.65,1.37-1.26,2.1-1.82.74-.56,1.51-1.07,2.31-1.52.8-.46,1.58-.78,2.35-.96.76-.19,1.55-.2,2.38-.05.82.16,1.64.43,2.43.81.8.38,1.54.83,2.25,1.36.7.53,1.31,1.05,1.82,1.56.67.65,1.14,1.35,1.41,2.11.27.77.41,1.59.42,2.49-.01.13-.18.15-.5.05-.32-.09-.52-.14-.61-.16-.65-.23-1.4-.62-2.24-1.18-.84-.56-1.51-1.07-2.01-1.55-.12-.14-.25-.28-.38-.41-.14-.14-.22-.31-.23-.52l-.03-.12s0-.09.03-.14l-.18.05c-1.3.57-2.58,1.39-3.83,2.44s-2.42,2.21-3.52,3.48c-1.09,1.27-2.1,2.58-3.02,3.93-.92,1.36-1.74,2.63-2.47,3.83-1.7,2.97-3.21,6.33-4.54,10.08-1.34,3.75-2.39,7.61-3.15,11.59-.77,3.97-1.23,7.91-1.37,11.82-.15,3.91.11,7.48.78,10.72.13.69.24,1.24.34,1.64.1.4.27.93.52,1.59.71,1.87,1.81,2.62,3.29,2.25,1.17-.28,2.48-1.19,3.93-2.72,1.45-1.52,2.97-3.4,4.55-5.64,1.57-2.24,3.16-4.7,4.75-7.39,1.6-2.69,3.11-5.32,4.54-7.88,1.44-2.56,2.72-4.94,3.86-7.14,1.14-2.19,2.05-3.92,2.71-5.19.01-.13.04-.29.08-.47-.36-.08-.8-.06-1.32.07-.88.22-2.01.7-3.38,1.44s-2.77,1.74-4.21,3.01c-1.43,1.27-2.81,2.82-4.15,4.66-1.33,1.83-2.39,3.93-3.17,6.29-.02.09-.36,0-1.01-.32-.65-.31-1.33-.78-2.03-1.42-.71-.63-1.29-1.4-1.72-2.32-.44-.91-.46-1.95-.07-3.11.38-1.07.94-2.05,1.68-2.93s1.57-1.72,2.51-2.5c.93-.78,1.91-1.52,2.93-2.22,1.02-.7,1.99-1.35,2.9-1.96.54-.38,1.19-.83,1.94-1.33.75-.51,1.54-1.01,2.37-1.51.84-.5,1.66-.96,2.47-1.37.81-.41,1.54-.7,2.18-.86.08-.02.18-.03.28-.03.11-.01.2-.02.28-.04l.12-.03c.4-.1.95.01,1.64.33.7.32,1.4.72,2.12,1.2.71.49,1.37,1.02,1.98,1.59.61.57,1.04,1.09,1.27,1.54.12.31.21.62.26.92.06.31.1.63.14.96.08,1,.08,1.99,0,2.96Zm21.35,7.2c-.29,1.67-.76,3.26-1.41,4.78-.65,1.52-1.49,2.87-2.55,4.04-1.05,1.17-2.36,1.95-3.92,2.34-1.12.27-2.27.27-3.45-.02-1.18-.28-2.27-.75-3.28-1.39-1.01-.65-1.9-1.44-2.68-2.37-.79-.94-1.37-1.93-1.76-2.99-.44-1.12-.71-2.28-.79-3.47-.08-1.19-.1-2.39-.05-3.59.03-.56.11-1.38.23-2.45.12-1.07.31-2.16.57-3.27.26-1.1.62-2.11,1.08-3.01.45-.9,1.02-1.43,1.71-1.6.4-.1.82-.09,1.27.01.46.14.92.34,1.36.59.45.25.86.52,1.25.81s.72.55.99.78c.16.13.37.33.63.61.26.27.4.54.42.79.01.21-.03.33-.1.37-.08.04-.19.08-.35.12l-.18.05s-.07.02-.09.05c-.01.02-.04.04-.08.05-.31.29-.58.64-.79,1.06-.22.41-.41.81-.57,1.19-.72,2.09-1.14,4.32-1.26,6.69s.08,4.64.62,6.8c.4-.1.79-.24,1.17-.42.38-.17.74-.37,1.07-.58,1.04-.76,1.92-1.82,2.63-3.16.72-1.35,1.29-2.79,1.72-4.32.43-1.53.72-3.08.87-4.64.14-1.57.2-2.97.15-4.19,0-1.4-.22-2.79-.64-4.18l-.18-.47c-.79.24-1.55.57-2.28.98-.73.41-1.42.87-2.06,1.37-.07.06-.19.11-.35.14-.36.09-.78.04-1.28-.16-.49-.2-1-.44-1.52-.74-.52-.3-1-.62-1.45-.95-.44-.34-.76-.64-.95-.89-.01-.04-.13-.21-.35-.52-.22-.3-.25-.52-.06-.65.71-.56,1.47-1.1,2.28-1.61.81-.52,1.65-.89,2.54-1.11,1.16-.28,2.36-.26,3.59.08,1.23.33,2.38.87,3.45,1.61,1.08.73,2.02,1.62,2.83,2.65.8,1.04,1.4,2.08,1.79,3.14.36,1.14.6,2.29.72,3.45.08,1.22.1,2.4.04,3.57-.07,1.42-.26,2.96-.55,4.63Z"/>
      <path class="cls-2" d="m211.15,208.79c47.23-47.41,47.66-124.61,1.96-171.94-46.72-48.38-126.12-49.45-174.73-1.3,18.02,18.17,36.04,36.34,54.06,54.52,26.71-16.66,60.68-10.19,77.34,12.21,13.61,18.29,13.87,44.79.14,65.56,13.75,13.65,27.49,27.3,41.24,40.96Z"/>
      <rect class="cls-2" x="-37.54" y="115.73" width="302.41" height="31.87" rx="10.09" ry="10.09" transform="translate(128.78 -41.61) rotate(45.79)"/>
      <circle class="cls-2" cx="220.59" cy="23.92" r="19.22"/>
    </g>
  </g>
</svg>