<svg width="39" height="40" viewBox="0 0 39 40" fill="none" xmlns="http://www.w3.org/2000/svg">
<path d="M37.5236 19.6271C37.5236 30.2058 29.2207 38.7542 19.0118 38.7542C8.8029 38.7542 0.5 30.2058 0.5 19.6271C0.5 9.04836 8.8029 0.5 19.0118 0.5C29.2207 0.5 37.5236 9.04836 37.5236 19.6271Z" stroke="#101A24"/>
<path d="M16.375 12C13.9626 12 12 13.9626 12 16.375V23.375C12 25.7874 13.9626 27.75 16.375 27.75H23.375C25.7874 27.75 27.75 25.7874 27.75 23.375V16.375C27.75 13.9626 25.7874 12 23.375 12H16.375ZM16.375 13.75H23.375C24.8223 13.75 26 14.9277 26 16.375V23.375C26 24.8223 24.8223 26 23.375 26H16.375C14.9277 26 13.75 24.8223 13.75 23.375V16.375C13.75 14.9277 14.9277 13.75 16.375 13.75ZM24.25 14.625C24.0179 14.625 23.7954 14.7172 23.6313 14.8813C23.4672 15.0454 23.375 15.2679 23.375 15.5C23.375 15.7321 23.4672 15.9546 23.6313 16.1187C23.7954 16.2828 24.0179 16.375 24.25 16.375C24.4821 16.375 24.7046 16.2828 24.8687 16.1187C25.0328 15.9546 25.125 15.7321 25.125 15.5C25.125 15.2679 25.0328 15.0454 24.8687 14.8813C24.7046 14.7172 24.4821 14.625 24.25 14.625ZM19.875 15.5C17.4626 15.5 15.5 17.4626 15.5 19.875C15.5 22.2874 17.4626 24.25 19.875 24.25C22.2874 24.25 24.25 22.2874 24.25 19.875C24.25 17.4626 22.2874 15.5 19.875 15.5ZM19.875 17.25C21.3223 17.25 22.5 18.4277 22.5 19.875C22.5 21.3223 21.3223 22.5 19.875 22.5C18.4277 22.5 17.25 21.3223 17.25 19.875C17.25 18.4277 18.4277 17.25 19.875 17.25Z" fill="black"/>
</svg>
