<?xml version="1.0" encoding="UTF-8"?>
<svg id="Capa_2" data-name="Capa 2" xmlns="http://www.w3.org/2000/svg" viewBox="0 0 1168.37 397.21">
  <defs>
    <style>
      .cls-1 {
        fill: #fff;
      }

      .cls-2 {
        fill: #00af66;
      }
    </style>
  </defs>
  <g id="Capa_1-2" data-name="Capa 1">
    <g>
      <g>
        <path class="cls-1" d="m1043.5,329.56c-7.32-10.09-19.77-27.2-35.37-48.37-63.76-86.52-80.79-105.95-85.55-139.79-2.24-15.9-2.59-40.83,10.34-73.25,19.1,19.2,38.21,38.39,57.31,57.59-.34,2-4.65,30.6,17.05,50.32,18.7,17,41.98,14.01,45.17,13.55,17.93,18.41,35.87,36.82,53.8,55.23l-62.76,84.71Z"/>
        <path class="cls-2" d="m1132.54,208.79c47.23-47.41,47.66-124.61,1.96-171.94-46.72-48.38-126.12-49.45-174.73-1.3,18.02,18.17,36.04,36.34,54.06,54.52,26.71-16.66,60.68-10.19,77.34,12.21,13.61,18.29,13.87,44.79.14,65.56,13.75,13.65,27.49,27.3,41.24,40.96Z"/>
        <rect class="cls-2" x="883.84" y="115.73" width="302.41" height="31.87" rx="10.09" ry="10.09" transform="translate(407.69 -702.05) rotate(45.79)"/>
        <circle class="cls-2" cx="1141.98" cy="23.92" r="19.22"/>
      </g>
      <g>
        <path class="cls-1" d="m99.61,199.61c-7.61,0-13.05-1.57-16.35-4.72-3.29-3.14-5.08-7.05-5.38-11.74-1.61,4.97-5.01,9.33-10.2,13.06-5.19,3.73-12.69,5.59-22.49,5.59-5.71,0-11.27-1.13-16.68-3.4-5.41-2.27-10.24-6.03-14.48-11.3-4.24-5.27-7.65-12.29-10.2-21.06-2.56-8.78-3.84-19.67-3.84-32.69,0-4.97.29-10.71.88-17.22.58-6.51,1.79-13.16,3.62-19.97,1.83-6.8,4.46-13.46,7.9-19.97,3.44-6.51,7.97-12.32,13.6-17.44,5.63-5.12,12.54-9.25,20.73-12.4,8.19-3.14,17.99-4.72,29.4-4.72,7.46,0,14.15.81,20.08,2.41,5.92,1.61,10.97,3.88,15.14,6.8,4.17,2.93,7.38,6.51,9.65,10.75,2.27,4.24,3.4,9,3.4,14.26,0,8.49-2.78,14.89-8.34,19.2-5.56,4.32-13.38,6.47-23.48,6.47-3.22,0-5.16-.25-5.81-.77-.66-.51-1.06-1.57-1.21-3.18-.29-2.63-.48-5.27-.55-7.9-.08-2.63-.44-5.05-1.1-7.24-.66-2.19-1.79-3.95-3.4-5.27-1.61-1.32-4.17-1.97-7.68-1.97-7.17,0-12.87,2.05-17.11,6.14-4.24,4.1-7.46,9.07-9.65,14.92-2.19,5.85-3.59,11.89-4.17,18.1-.59,6.22-.88,11.45-.88,15.69,0,7.02.44,12.91,1.32,17.66.88,4.75,2.16,8.63,3.84,11.63,1.68,3,3.69,5.12,6.03,6.36,2.34,1.25,5.05,1.87,8.12,1.87,5.56,0,10.24-1.17,14.04-3.51,3.8-2.34,6.07-6.58,6.8-12.73l1.32-12.29c.44-4.24,1.02-7.71,1.76-10.42.73-2.71,2.49-4.06,5.27-4.06h12.07c3.65,0,6.62.41,8.88,1.21,2.27.81,4.02,2.12,5.27,3.95,1.24,1.83,2.08,4.21,2.52,7.13.44,2.93.66,6.51.66,10.75,0,2.93-.11,6.8-.33,11.63-.22,4.83-.51,9.73-.88,14.7-.37,4.97-.77,9.54-1.21,13.71-.44,4.17-.81,7.06-1.1,8.67-.29,1.32-.66,2.19-1.1,2.63-.44.44-1.32.66-2.63.66h-12.07Z"/>
        <path class="cls-1" d="m188.48,201.8c-10.09,0-18.47-1.43-25.12-4.28-6.66-2.85-11.96-6.76-15.91-11.74-3.95-4.97-6.73-10.79-8.34-17.44-1.61-6.65-2.41-13.79-2.41-21.39,0-8.78,1.06-17.37,3.18-25.78,2.12-8.41,5.74-15.91,10.86-22.49,5.12-6.58,11.88-11.88,20.29-15.91,8.41-4.02,18.9-6.03,31.49-6.03,18.43,0,31.63,4.5,39.6,13.49,7.97,9,11.96,21.61,11.96,37.85,0,4.54-.33,9.54-.99,15.03s-1.9,10.94-3.73,16.35c-1.83,5.41-4.32,10.68-7.46,15.8-3.15,5.12-7.13,9.65-11.96,13.6s-10.64,7.1-17.44,9.43-14.81,3.51-24.03,3.51Zm10.31-95.88c-5.56,0-9.98,1.43-13.27,4.28-3.29,2.85-5.78,6.29-7.46,10.31-1.68,4.02-2.78,8.27-3.29,12.73-.51,4.46-.77,8.23-.77,11.3,0,9.65,1.54,16.75,4.61,21.28,3.07,4.54,7.46,6.8,13.16,6.8,5.12,0,9.33-1.61,12.62-4.83,3.29-3.22,5.85-7.09,7.68-11.63,1.83-4.53,3.07-9.29,3.73-14.26.66-4.97.99-9.14.99-12.51,0-7.31-1.36-13.05-4.06-17.22-2.71-4.17-7.35-6.25-13.93-6.25Z"/>
        <path class="cls-1" d="m312.44,97.58c0,3.07-.26,7.39-.77,12.95-.51,5.56-1.03,11.34-1.54,17.33-.51,6-1.03,11.63-1.54,16.89-.51,5.27-.77,9.07-.77,11.41,0,5.12,1.28,9.11,3.84,11.96,2.56,2.85,6.11,4.28,10.64,4.28,3.95,0,7.27-1.57,9.98-4.72,2.71-3.14,4.9-7.24,6.58-12.29,1.68-5.05,3.03-10.79,4.06-17.22,1.02-6.43,1.79-12.95,2.3-19.53.51-6.58.95-12.98,1.32-19.2.36-6.22.77-11.59,1.21-16.13.14-1.17.58-2.19,1.32-3.07.73-.88,1.9-1.32,3.51-1.32h7.9c4.53,0,8.23.48,11.08,1.43,2.85.95,5.12,2.3,6.8,4.06,1.68,1.76,2.85,3.92,3.51,6.47.66,2.56.99,5.52.99,8.89,0,2.19-.11,5.3-.33,9.33-.22,4.02-.62,9.58-1.21,16.67-.59,7.1-1.28,16.09-2.08,26.99-.81,10.9-1.79,24.39-2.96,40.48-.29,3.07-.62,4.9-.99,5.49-.37.59-1.57.88-3.62.88h-8.56c-4.39,0-8.01-.51-10.86-1.54-2.85-1.02-5.16-2.34-6.91-3.95-1.75-1.61-3-3.51-3.73-5.71-.73-2.19-1.17-4.46-1.32-6.8-2.19,3.81-4.64,7.02-7.35,9.65-2.71,2.63-5.52,4.72-8.45,6.25-2.93,1.54-5.92,2.63-9,3.29s-6.07.99-9,.99c-5.56,0-10.53-.92-14.92-2.74s-8.08-4.28-11.08-7.35c-3-3.07-5.3-6.73-6.91-10.97-1.61-4.24-2.41-8.78-2.41-13.6,0-1.9.11-5.01.33-9.33.22-4.31.51-9.18.88-14.59.36-5.41.77-11.15,1.21-17.22.44-6.07.84-11.81,1.21-17.22.36-5.41.73-10.17,1.1-14.26.36-4.09.62-7.02.77-8.78.29-2.63.88-4.42,1.76-5.38.88-.95,2.34-1.43,4.39-1.43h7.02c4.53,0,8.26.44,11.19,1.32,2.92.88,5.23,2.12,6.91,3.73,1.68,1.61,2.85,3.55,3.51,5.81.66,2.27.99,4.87.99,7.79Z"/>
        <path class="cls-1" d="m473.05,131.37c-.88,0-1.86-.03-2.96-.11-1.1-.07-2.16-.22-3.18-.44-1.03-.22-1.9-.51-2.63-.88-.73-.36-1.1-.84-1.1-1.43,0-1.9.07-3.66.22-5.27.14-1.61.22-3.29.22-5.05,0-3.22-.44-5.85-1.32-7.9-.88-2.05-2.63-3.07-5.27-3.07-4.1,0-7.5,2.67-10.2,8.01-2.71,5.34-4.43,13.35-5.16,24.03-.29,4.68-.7,9.98-1.21,15.91-.51,5.92-.99,11.63-1.43,17.11-.44,5.49-.81,10.35-1.1,14.59-.29,4.24-.44,7.02-.44,8.34,0,1.46-.51,2.56-1.54,3.29-1.03.73-2.12,1.1-3.29,1.1h-7.9c-4.54,0-8.23-.47-11.08-1.43-2.85-.95-5.12-2.3-6.8-4.06-1.68-1.75-2.85-3.91-3.51-6.47-.66-2.56-.99-5.52-.99-8.89,0-2.19.11-5.3.33-9.33.22-4.02.62-9.58,1.21-16.68.58-7.09,1.28-16.09,2.08-26.99.8-10.9,1.79-24.39,2.96-40.48.29-4.24,1.83-6.36,4.61-6.36h8.56c4.09,0,7.53.44,10.31,1.32,2.78.88,5.05,2.08,6.8,3.62,1.76,1.54,3.03,3.33,3.84,5.38.8,2.05,1.35,4.17,1.65,6.36,1.75-3.36,3.84-6.25,6.25-8.67,2.41-2.41,4.94-4.39,7.57-5.92s5.34-2.63,8.12-3.29c2.78-.66,5.34-.99,7.68-.99,2.78,0,5.6.51,8.45,1.54,2.85,1.02,5.45,2.56,7.79,4.61,2.34,2.05,4.2,4.68,5.6,7.9,1.39,3.22,2.08,7.02,2.08,11.41,0,3.95-.59,7.68-1.75,11.19-1.17,3.51-2.85,6.62-5.05,9.33-2.2,2.71-4.87,4.83-8.01,6.36-3.15,1.54-6.62,2.3-10.42,2.3Z"/>
        <path class="cls-1" d="m545.23,160.11c-.44,6.73-.95,13.13-1.54,19.2-.59,6.07-1.03,11.38-1.32,15.91-.15,1.76-.51,2.93-1.1,3.51-.59.59-1.83.88-3.73.88h-7.9c-4.54,0-8.23-.47-11.08-1.43-2.85-.95-5.12-2.3-6.8-4.06-1.68-1.75-2.85-3.91-3.51-6.47-.66-2.56-.99-5.52-.99-8.89,0-2.19.11-5.3.33-9.33.22-4.02.62-9.58,1.21-16.68.58-7.09,1.28-16.09,2.08-26.99.8-10.9,1.79-24.39,2.96-40.48.14-3.22.51-5.12,1.1-5.7.44-.44,1.61-.66,3.51-.66h8.56c4.39,0,7.97.51,10.75,1.54,2.78,1.03,5.05,2.34,6.8,3.95,1.75,1.61,3,3.51,3.73,5.71.73,2.19,1.17,4.46,1.32,6.8,4.24-7.9,9.07-13.24,14.48-16.02,5.41-2.78,11.77-4.17,19.09-4.17,3.95,0,7.75.37,11.41,1.1,3.65.73,6.95,1.97,9.87,3.73,2.92,1.75,5.41,4.06,7.46,6.91,2.05,2.85,3.51,6.47,4.39,10.86,4.53-8.48,9.51-14.37,14.92-17.66,5.41-3.29,12.21-4.94,20.41-4.94,4.53,0,8.89.48,13.05,1.43,4.17.95,7.79,2.6,10.86,4.94,3.07,2.34,5.52,5.52,7.35,9.54,1.83,4.02,2.74,9.03,2.74,15.03,0,4.54-.22,10.09-.66,16.68-.44,6.58-.95,13.71-1.54,21.39-.59,7.68-1.25,15.58-1.97,23.7-.73,8.12-1.32,15.91-1.76,23.37-.15,1.61-.29,2.85-.44,3.73-.15.88-.4,1.54-.77,1.97-.37.44-.92.73-1.65.88-.73.15-1.75.22-3.07.22h-7.02c-4.68,0-8.48-.44-11.41-1.32-2.93-.88-5.19-2.12-6.8-3.73-1.61-1.61-2.74-3.62-3.4-6.03-.66-2.41-.99-5.16-.99-8.23,0-1.9.11-4.61.33-8.12.22-3.51.51-7.31.88-11.41.36-4.09.73-8.34,1.1-12.73.36-4.39.73-8.45,1.1-12.18.36-3.73.66-6.98.88-9.76.22-2.78.33-4.61.33-5.49,0-3.8-.77-7.17-2.3-10.09-1.54-2.92-4.5-4.39-8.89-4.39-3.8,0-7.1,1.24-9.87,3.73-2.78,2.49-5.12,5.92-7.02,10.31-1.9,4.39-3.44,9.58-4.61,15.58-1.17,6-1.97,12.51-2.41,19.53-.29,4.54-.66,9.73-1.1,15.58-.44,5.85-.95,13.17-1.54,21.94-.15,1.61-.29,2.85-.44,3.73-.15.88-.4,1.54-.77,1.97-.37.44-.92.73-1.64.88-.73.15-1.76.22-3.07.22h-7.02c-4.68,0-8.48-.44-11.41-1.32-2.93-.88-5.19-2.12-6.8-3.73-1.61-1.61-2.74-3.62-3.4-6.03-.66-2.41-.99-5.16-.99-8.23s.25-7.2.77-12.83c.51-5.63,1.02-11.48,1.54-17.55.51-6.07,1.02-11.85,1.54-17.33.51-5.49.77-9.47.77-11.96,0-3.8-.77-7.17-2.3-10.09-1.54-2.92-4.5-4.39-8.89-4.39-3.95,0-7.32,1.46-10.09,4.39-2.78,2.93-5.08,6.84-6.91,11.74-1.83,4.9-3.29,10.64-4.39,17.22-1.1,6.58-1.87,13.46-2.3,20.62Z"/>
        <path class="cls-1" d="m755.87,201.8c-6.44,0-12.83-.81-19.2-2.41-6.36-1.61-12.07-4.39-17.11-8.34-5.05-3.95-9.18-9.22-12.4-15.8-3.22-6.58-4.83-14.84-4.83-24.79,0-3.65.29-8.04.88-13.16.58-5.12,1.72-10.38,3.4-15.8,1.68-5.41,4.02-10.79,7.02-16.13,3-5.34,6.91-10.13,11.74-14.37,4.83-4.24,10.68-7.68,17.55-10.31,6.87-2.63,15.06-3.95,24.57-3.95,7.6,0,14.04.88,19.31,2.63,5.27,1.75,9.51,4.13,12.73,7.13,3.22,3,5.56,6.47,7.02,10.42,1.46,3.95,2.19,8.19,2.19,12.73,0,6.73-1.35,12.43-4.06,17.11-2.71,4.68-6.22,8.59-10.53,11.74-4.32,3.15-9.11,5.6-14.37,7.35-5.27,1.76-10.46,3.11-15.58,4.06-5.12.95-9.84,1.54-14.15,1.75-4.32.22-7.65.33-9.98.33,0,2.78.4,5.52,1.21,8.23.8,2.71,2.01,5.08,3.62,7.13,1.61,2.05,3.73,3.73,6.36,5.05s5.85,1.97,9.65,1.97,6.76-.62,8.89-1.87c2.12-1.24,3.84-2.63,5.16-4.17,1.32-1.54,2.45-2.92,3.4-4.17.95-1.24,2.23-1.87,3.84-1.87.73,0,2.01.18,3.84.55,1.83.37,3.69,1.13,5.6,2.3,1.9,1.17,3.58,2.78,5.05,4.83,1.46,2.05,2.19,4.68,2.19,7.9,0,4.24-1.32,7.9-3.95,10.97-2.63,3.07-6.03,5.56-10.2,7.46-4.17,1.9-8.81,3.29-13.93,4.17-5.12.88-10.09,1.32-14.92,1.32Zm4.17-95.88c-3.22,0-5.96.92-8.23,2.74-2.27,1.83-4.17,4.13-5.7,6.91-1.54,2.78-2.71,5.85-3.51,9.21-.81,3.37-1.43,6.58-1.87,9.65,9.07-.14,16.42-1.68,22.05-4.61,5.63-2.92,8.45-7.09,8.45-12.51,0-2.92-.91-5.56-2.74-7.9-1.83-2.34-4.64-3.51-8.45-3.51Z"/>
        <path class="cls-1" d="m869.08,108.55c-.44,5.56-.92,11.05-1.43,16.46-.51,5.41-.99,10.53-1.43,15.36s-.77,9.14-.99,12.95c-.22,3.81-.33,6.73-.33,8.78,0,3.81.44,6.33,1.32,7.57.88,1.24,2.34,1.86,4.39,1.86,1.61,0,3-.29,4.17-.88,1.17-.58,2.27-1.24,3.29-1.97,1.02-.73,1.94-1.39,2.74-1.98.8-.58,1.72-.88,2.74-.88s1.97.59,2.85,1.75c.88,1.17,1.32,3.88,1.32,8.12,0,8.05-2.2,14.41-6.58,19.09-4.39,4.68-11.92,7.02-22.6,7.02s-18.32-2.45-23.37-7.35c-5.05-4.9-7.57-12.4-7.57-22.49,0-2.19.11-4.79.33-7.79.22-3,.55-6.91.99-11.74.44-4.83.99-10.75,1.65-17.77.66-7.02,1.35-15.72,2.08-26.11h-11.63c-1.17,0-1.87-.25-2.08-.77-.22-.51-.33-1.28-.33-2.3l.66-11.19c.14-1.9.4-3.76.77-5.59.36-1.83,1.1-3.47,2.2-4.94,1.1-1.46,2.67-2.63,4.72-3.51,2.05-.88,4.75-1.32,8.12-1.32,1.02-2.63,2.19-5.78,3.51-9.44,1.32-3.65,2.63-7.2,3.95-10.64,1.32-3.44,2.6-6.33,3.84-8.67,1.24-2.34,2.38-3.51,3.4-3.51h6.36c6.14,0,10.38,1.9,12.73,5.71,2.34,3.8,3.51,8.34,3.51,13.6,0,2.93-.22,7.24-.66,12.95h23.04c2.34,0,3.51,1.02,3.51,3.07l-.88,11.85c-.29,4.39-1.5,7.94-3.62,10.64-2.12,2.71-6.47,4.06-13.05,4.06h-11.63Z"/>
      </g>
      <g>
        <path class="cls-2" d="m909.39,271.67c.19-.05.41-.07.66-.09.25,0,.47-.04.66-.09l.28-.07c.95-.23,2.24.03,3.88.78,1.64.75,3.3,1.7,4.99,2.84,1.69,1.14,3.25,2.39,4.69,3.74,1.44,1.36,2.44,2.56,3,3.63.28.74.48,1.46.61,2.18.13.72.24,1.47.33,2.25.18,2.37.18,4.7-.01,7.01-.19,2.3-.39,4.64-.61,7-.86,6.74-1.88,13.41-3.06,20.03-1.19,6.62-2.31,13.27-3.38,19.96-1.12,6.9-2.06,13.79-2.83,20.65-.77,6.87-1.01,13.78-.71,20.73.08,2.39.32,4.79.72,7.2.39,2.41,1.02,4.77,1.89,7.07.19.35.14.57-.14.64-.66.16-1.73-.08-3.19-.72-1.46-.65-2.94-1.46-4.44-2.45-1.5-.99-2.87-1.98-4.12-2.98-1.25-1-1.94-1.78-2.08-2.35-1.36-3.48-2.18-7.05-2.48-10.69-.29-3.64-.43-7.28-.42-10.89.03-2.72.28-5.79.75-9.22.46-3.43,1.07-7.07,1.84-10.92.76-3.85,1.6-7.77,2.53-11.77.93-3.99,1.85-7.88,2.78-11.68.93-3.79,1.77-7.39,2.55-10.79.77-3.4,1.38-6.42,1.85-9.04-1.26,2.62-2.86,6.05-4.78,10.29-1.92,4.24-3.96,8.61-6.12,13.1-2.16,4.5-4.28,8.84-6.37,13.01-2.09,4.18-3.88,7.51-5.38,9.98-1.41,2.45-3.17,5.3-5.29,8.53-2.12,3.23-4.46,6.37-7.03,9.41-2.57,3.04-5.27,5.74-8.1,8.09-2.84,2.35-5.72,3.89-8.66,4.61-1.8.44-3.79.4-5.98-.11-2.19-.52-4.31-1.3-6.38-2.35-2.07-1.05-4.02-2.25-5.86-3.61-1.84-1.35-3.36-2.64-4.56-3.85-3.11-3.25-5.33-6.97-6.66-11.17-1.33-4.19-2.27-8.43-2.82-12.71-1.26-9.63-1.41-19.94-.44-30.92.97-10.98,2.92-21.83,5.86-32.54,2.94-10.71,6.83-20.93,11.67-30.66,4.84-9.72,10.46-18.13,16.85-25.23,1.17-1.39,2.54-2.86,4.12-4.4,1.58-1.54,3.23-2.98,4.97-4.31,1.73-1.33,3.54-2.53,5.44-3.6,1.9-1.07,3.74-1.82,5.54-2.27,1.8-.44,3.67-.47,5.62-.1,1.95.38,3.86,1.01,5.74,1.9,1.88.89,3.65,1.97,5.31,3.21,1.66,1.25,3.09,2.48,4.3,3.69,1.58,1.52,2.69,3.18,3.33,4.98.64,1.8.97,3.75.99,5.86-.03.31-.42.35-1.17.14-.76-.21-1.24-.35-1.45-.4-1.54-.53-3.29-1.45-5.27-2.77-1.98-1.32-3.56-2.54-4.74-3.66-.28-.33-.59-.66-.92-.98-.33-.32-.51-.73-.53-1.23l-.07-.28c-.02-.09,0-.2.07-.32l-.43.11c-3.08,1.36-6.1,3.28-9.05,5.76-2.96,2.48-5.72,5.22-8.3,8.21-2.58,2.99-4.96,6.09-7.13,9.28-2.18,3.2-4.12,6.21-5.84,9.04-4,7.01-7.58,14.94-10.72,23.8-3.15,8.86-5.63,17.98-7.44,27.36-1.81,9.38-2.89,18.69-3.24,27.91-.35,9.22.27,17.66,1.85,25.3.3,1.63.57,2.92.8,3.87s.64,2.2,1.23,3.76c1.69,4.41,4.28,6.18,7.78,5.32,2.75-.67,5.83-2.81,9.27-6.42,3.43-3.61,7.01-8.05,10.73-13.33,3.72-5.28,7.46-11.1,11.23-17.44,3.76-6.35,7.33-12.55,10.72-18.6,3.38-6.05,6.42-11.67,9.12-16.85,2.69-5.18,4.83-9.27,6.4-12.27.02-.31.08-.67.18-1.1-.85-.19-1.89-.14-3.12.17-2.08.51-4.74,1.64-7.98,3.39-3.24,1.75-6.54,4.12-9.93,7.11-3.38,2.99-6.65,6.66-9.8,10.99-3.15,4.34-5.65,9.29-7.49,14.87-.05.21-.84-.04-2.37-.77-1.53-.73-3.14-1.84-4.81-3.34-1.67-1.49-3.03-3.32-4.06-5.48-1.03-2.16-1.08-4.6-.15-7.35.89-2.53,2.2-4.83,3.95-6.92,1.75-2.09,3.72-4.05,5.93-5.9,2.21-1.85,4.51-3.59,6.92-5.24,2.41-1.65,4.69-3.19,6.85-4.62,1.28-.92,2.8-1.97,4.57-3.16,1.77-1.19,3.63-2.37,5.6-3.56,1.97-1.18,3.91-2.26,5.83-3.24,1.92-.97,3.64-1.65,5.15-2.02Z"/>
        <path class="cls-2" d="m980.09,291.51c.2,2.87.24,5.67.11,8.41-.18,3.36-.61,7-1.3,10.94-.69,3.93-1.8,7.7-3.33,11.29s-3.53,6.77-6.02,9.54c-2.48,2.77-5.57,4.61-9.26,5.51-2.65.65-5.37.64-8.14-.03-2.78-.67-5.36-1.77-7.74-3.29-2.38-1.52-4.5-3.39-6.34-5.6-1.85-2.21-3.23-4.55-4.14-7.04-1.05-2.65-1.67-5.39-1.86-8.2-.19-2.82-.23-5.64-.12-8.48.08-1.32.26-3.25.54-5.78.28-2.53.73-5.1,1.34-7.71.61-2.61,1.46-4.98,2.55-7.1,1.08-2.12,2.43-3.38,4.04-3.78.95-.23,1.95-.23,3.02.01,1.08.34,2.16.8,3.21,1.4s2.03,1.23,2.95,1.91,1.7,1.29,2.33,1.84c.38.31.87.79,1.48,1.44.61.65.94,1.28.99,1.87.02.5-.06.79-.23.89-.18.1-.46.19-.83.28l-.43.1c-.09.02-.16.07-.2.12-.04.06-.1.1-.2.12-.74.69-1.36,1.52-1.87,2.5s-.96,1.92-1.34,2.81c-1.7,4.94-2.69,10.2-2.97,15.79-.28,5.59.2,10.95,1.46,16.06.95-.23,1.87-.56,2.77-.98.9-.42,1.74-.88,2.52-1.37,2.47-1.81,4.54-4.3,6.22-7.48,1.68-3.17,3.03-6.57,4.05-10.18,1.02-3.61,1.7-7.27,2.05-10.97.35-3.7.47-6.99.36-9.88-.01-3.31-.52-6.6-1.52-9.87l-.42-1.1c-1.87.56-3.67,1.33-5.38,2.3-1.72.98-3.34,2.05-4.86,3.23-.17.14-.44.26-.82.35-.85.21-1.86.08-3.03-.38-1.17-.46-2.37-1.05-3.59-1.75-1.23-.7-2.37-1.45-3.42-2.25-1.05-.8-1.8-1.49-2.24-2.08-.02-.09-.3-.5-.83-1.23-.53-.72-.58-1.24-.15-1.54,1.68-1.32,3.48-2.59,5.39-3.81,1.91-1.22,3.9-2.09,5.99-2.6,2.75-.67,5.57-.62,8.48.18,2.91.79,5.63,2.06,8.16,3.79,2.54,1.74,4.76,3.83,6.66,6.27,1.9,2.45,3.31,4.91,4.23,7.4.86,2.7,1.43,5.42,1.71,8.17Z"/>
      </g>
    </g>
  </g>
</svg>