<?xml version="1.0" encoding="UTF-8"?>
<svg id="Capa_1" data-name="Capa 1" xmlns="http://www.w3.org/2000/svg" viewBox="0 0 2000 2000">
  <defs>
    <style>
      .cls-1 {
        font-family: Candara, Candara;
        font-size: 315px;
      }

      .cls-2 {
        fill: #fff;
      }

      .cls-3 {
        fill: #fafafa;
      }

      .cls-4 {
        opacity: .5;
      }

      .cls-5 {
        fill: #f5f5f5;
      }

      .cls-6 {
        fill: #455a64;
      }

      .cls-7 {
        fill: #e0e0e0;
      }

      .cls-8 {
        opacity: .3;
      }

      .cls-9 {
        fill: #b78876;
      }

      .cls-10 {
        isolation: isolate;
        opacity: .2;
      }

      .cls-11 {
        fill: #7eb693;
      }

      .cls-12 {
        fill: #a36957;
      }

      .cls-13 {
        fill: #263238;
      }
    </style>
  </defs>
  <text class="cls-1" transform="translate(264.87 1669.38)"><tspan x="0" y="0">Sin imagen</tspan></text>
  <g>
    <g id="freepik--background-complete--inject-133">
      <rect class="cls-5" x="458.29" y="591.75" width="330.84" height="487.15" transform="translate(-359.15 487.81) rotate(-33.78)"/>
      <polygon class="cls-7" points="754.53 926.65 751.42 945.97 614.71 926.26 617.82 906.95 754.53 926.65"/>
      <polygon class="cls-7" points="685.69 857.76 705.29 860.58 683.56 995.18 663.92 992.34 685.69 857.76"/>
      <path class="cls-7" d="m559.89,686.69c.2.27-27.35,19.07-61.54,41.91-34.19,22.84-62.05,41.17-62.25,40.88s27.35-19.07,61.54-41.93c34.19-22.87,61.93-41.15,62.25-40.86Z"/>
      <path class="cls-7" d="m660.91,661.3c.2.29-45.63,31.27-102.35,69.21-56.71,37.94-102.93,68.45-103.08,68.18s45.59-31.3,102.37-69.24c56.79-37.94,102.86-68.45,103.06-68.16Z"/>
      <path class="cls-7" d="m681.18,691.6c.2.29-45.63,31.3-102.35,69.24s-102.93,68.45-103.08,68.16,45.63-31.27,102.37-69.24c56.74-37.96,102.86-68.45,103.06-68.16Z"/>
      <path class="cls-7" d="m701.45,721.91c.2.29-45.63,31.3-102.35,69.21-56.71,37.91-102.93,68.48-102.93,68.18s45.61-31.3,102.35-69.24,102.74-68.45,102.93-68.16Z"/>
      <path class="cls-7" d="m721.64,752.23c.2.29-45.63,31.27-102.35,69.21-56.71,37.94-102.93,68.45-103.06,68.16s45.68-31.27,102.47-69.21c56.79-37.94,102.93-68.45,102.93-68.16Z"/>
      <rect class="cls-5" x="1404.62" y="854.92" width="277.85" height="409.11" transform="translate(-328.49 1037.08) rotate(-33.78)"/>
      <polygon class="cls-7" points="1653.44 1136.25 1650.82 1152.47 1536 1135.93 1538.64 1119.7 1653.44 1136.25"/>
      <polygon class="cls-7" points="1595.63 1078.38 1612.1 1080.76 1593.84 1193.79 1577.34 1191.42 1595.63 1078.38"/>
      <path class="cls-7" d="m1489.87,934.84c.2.29-22.92,16.1-51.64,35.29-28.72,19.19-52.15,34.53-52.35,34.31s22.94-16.08,51.64-35.29c28.7-19.21,52.15-34.73,52.35-34.31Z"/>
      <path class="cls-7" d="m1574.79,913.39c.2.29-38.26,26.37-85.78,58.21-47.52,31.84-86.42,57.47-86.61,57.18s38.26-26.37,85.78-58.23c47.52-31.86,86.34-57.45,86.61-57.15Z"/>
      <path class="cls-7" d="m1591.83,938.83c.2.29-38.26,26.37-85.78,58.23-47.52,31.86-86.42,57.45-86.61,57.15s38.13-26.25,85.78-58.11c47.64-31.86,86.46-57.55,86.61-57.28Z"/>
      <path class="cls-7" d="m1608.84,964.25c.2.29-38.28,26.37-85.78,58.23-47.5,31.86-86.42,57.45-86.61,57.15s38.26-26.35,85.78-58.23c47.52-31.89,86.44-57.4,86.61-57.15Z"/>
      <path class="cls-7" d="m1625.99,989.76c.2.29-38.26,26.35-85.78,58.21-47.52,31.86-86.42,57.45-86.61,57.18s38.26-26.37,85.78-58.23c47.52-31.86,86.29-57.45,86.61-57.15Z"/>
      <rect class="cls-5" x="744.31" y="531.05" width="420.78" height="285.76" transform="translate(-89.83 1197.94) rotate(-61.86)"/>
      <polygon class="cls-7" points="938.34 810.75 922.36 816.22 881.78 704.05 897.78 698.56 938.34 810.75"/>
      <polygon class="cls-7" points="962.85 730.27 968.68 746.37 857.27 784.53 851.44 768.43 962.85 730.27"/>
      <path class="cls-7" d="m1042.01,564.77c-.2.37-25.73-12.92-57.08-29.65-31.35-16.74-56.56-30.64-56.37-31s25.76,12.92,57.1,29.65c31.35,16.74,56.54,30.61,56.34,31Z"/>
      <path class="cls-7" d="m1102.5,631.5c-.2.37-42.5-21.89-94.48-49.68-51.98-27.79-93.94-50.63-93.74-51s42.47,21.86,94.45,49.68c51.98,27.82,93.96,50.63,93.77,51Z"/>
      <path class="cls-7" d="m1087.65,659.27c-.2.37-42.5-21.86-94.48-49.68-51.98-27.82-93.94-50.63-93.74-51s42.47,21.89,94.45,49.68c51.98,27.79,93.96,50.63,93.77,51Z"/>
      <path class="cls-7" d="m1072.79,687.04c-.2.37-42.5-21.86-94.48-49.65-51.98-27.79-93.94-50.56-93.74-51s42.47,21.86,94.45,49.65c51.98,27.79,93.96,50.63,93.77,51Z"/>
      <path class="cls-7" d="m1057.94,714.81c-.2.37-42.5-21.86-94.48-49.65-51.98-27.79-93.96-50.63-93.74-51s42.47,21.86,94.45,49.65c51.98,27.79,93.96,50.63,93.77,51Z"/>
      <rect class="cls-10" x="1052.92" y="241.26" width="6.32" height="107.79"/>
    </g>
    <g id="freepik--Lamp--inject-133">
      <path class="cls-11" d="m908.47,479.45h295.23s-27.25-130.36-149.84-130.36c-109.04,0-145.38,130.36-145.38,130.36Z"/>
      <rect class="cls-11" x="1052.92" y="241.26" width="6.32" height="107.79"/>
    </g>
    <g id="freepik--Floor--inject-133">
      <path class="cls-13" d="m1713.41,1319.2c0,.34-316.77.64-707.45.64s-707.5-.22-707.5-.64,316.72-.64,707.5-.64,707.45.27,707.45.64Z"/>
    </g>
    <g id="freepik--Plant--inject-133">
      <path class="cls-11" d="m376.79,1165.71c8.37.6,16.14,4.58,21.52,11.03,5.29,6.42,9.04,13.96,10.96,22.06,4.14,15.49,1.59,33.8-2.82,49.21-16.76-6-27.13-23.9-31.86-33.31-7.35-14.85-11.74-46.22,2.13-49.02"/>
      <path class="cls-11" d="m430.58,1266.8c-5.12-7.95-5.59-18.03-1.23-26.42,4.47-8.24,12.06-14.35,21.08-16.94,4.09-1.27,8.85-1.79,12.4.59,3.26,2.47,4.92,6.51,4.34,10.56-.64,3.98-2.34,7.72-4.9,10.83-8.16,11.05-18.06,20.24-31.86,21.37"/>
      <path class="cls-13" d="m432.45,1318.59c-.36-1.04-.62-2.12-.76-3.21-.44-2.3-1.03-5.27-1.74-8.82-2.2-9.73-2.81-19.75-1.81-29.68,1.16-9.97,4.95-19.46,11-27.47,1.85-2.4,3.98-4.56,6.35-6.45.64-.51,1.31-.98,2.01-1.42.22-.18.47-.33.74-.44-3.1,2.65-5.93,5.6-8.46,8.8-5.73,8.02-9.34,17.36-10.49,27.15-1.57,11.42.37,21.89,1.49,29.41.59,3.75,1.08,6.79,1.35,8.9.19,1.07.3,2.15.32,3.24Z"/>
      <path class="cls-13" d="m382.18,1189.31c.28.39.51.81.69,1.25.44.98,1.03,2.21,1.72,3.75,1.49,3.26,3.58,7.99,6.1,13.85,5.05,11.74,11.81,28.06,18.87,46.25,7.06,18.19,13.06,34.78,17.16,46.86,2.11,6.03,3.75,10.93,4.9,14.34.51,1.62.91,2.92,1.23,3.92.17.45.3.92.37,1.4-.25-.42-.45-.86-.59-1.32-.37-.98-.83-2.25-1.45-3.85l-5.17-14.21c-4.39-11.98-10.51-28.55-17.55-46.71-7.03-18.16-13.7-34.53-18.55-46.34-2.45-5.81-4.34-10.54-5.73-13.99-.64-1.57-1.15-2.82-1.54-3.82-.18-.44-.33-.89-.44-1.35Z"/>
      <path class="cls-11" d="m412.52,1284.33c-10.23-17.03-28.04-28.1-47.84-29.73-4.9-.34-10.93.49-13.14,4.9s.74,9.8,4.12,13.38c14.69,15.37,37.19,20.4,57.03,12.74"/>
      <path class="cls-13" d="m372.23,1267.88c1.04-.05,2.08-.01,3.11.12,1.21.07,2.41.2,3.6.42,1.4.27,3.04.42,4.75.91,1.92.41,3.81.93,5.66,1.57,2.15.69,4.25,1.51,6.3,2.45,4.71,2.11,9.17,4.75,13.28,7.87,4.07,3.19,7.75,6.84,10.98,10.88,1.39,1.76,2.68,3.6,3.85,5.51,1.06,1.65,2.02,3.36,2.89,5.12.74,1.43,1.39,2.91,1.96,4.41.49,1.12.91,2.26,1.25,3.43.36.98.63,1.99.81,3.01-.27,0-1.45-4.22-4.75-10.49-.9-1.69-1.89-3.32-2.97-4.9-1.19-1.86-2.49-3.65-3.87-5.37-6.41-7.92-14.59-14.23-23.87-18.43-2.13-.93-4.17-1.81-6.15-2.45-1.82-.66-3.68-1.23-5.56-1.69-6.86-1.89-11.3-2.11-11.27-2.38Z"/>
    </g>
    <g id="freepik--Character--inject-133">
      <path class="cls-13" d="m1484.73,499.77c-7.21,1.64-10.71,9.95-11.4,17.3s.25,15.15-2.84,21.86c-3.48,7.55-11.79,13.14-12.06,21.44-.17,5.07,2.84,9.8,2.7,14.93-.25,8.33-8.72,14.7-9.19,22.94-.32,6,3.68,11.74,2.72,17.67-.74,4.61-4.34,8.23-5.86,12.65-3.01,8.82,3.04,18.5,10.91,23.45,16.72,10.51,38.79,5.48,49.3-11.24,1.08-1.71,2-3.51,2.78-5.38,4.36-10.59,3.41-22.52,2.45-33.92-2.94-35.55-5.13-71.16-6.57-106.81"/>
      <path class="cls-6" d="m1463.8,625.2c1.48-.92,2.64-2.28,3.31-3.9.71-1.92.99-3.97.83-6-.27-2.7-.87-5.36-1.79-7.92-1.17-3.21-1.61-6.65-1.27-10.05.61-3.82,3.36-6.96,5.83-10.05,1.33-1.51,2.45-3.2,3.31-5.02.86-1.84,1-3.94.39-5.88-1.27-3.99-5.2-6.94-6.98-11.57-.84-2.29-.98-4.79-.39-7.16.56-2.22,1.38-4.37,2.45-6.4,2.07-3.65,3.71-7.52,4.9-11.54,1.72-7.77.91-15.2,2.08-21.3.65-4.89,2.82-9.45,6.2-13.04.96-.97,2.05-1.79,3.24-2.45.41-.21.85-.37,1.3-.47-1.54.85-2.95,1.9-4.19,3.14-3.13,3.63-5.1,8.11-5.66,12.87-.43,3.25-.66,6.52-.69,9.8,0,3.86-.39,7.71-1.13,11.49-1.17,4.11-2.81,8.08-4.9,11.81-1.84,3.85-3.53,8.36-1.91,12.57s5.51,7.13,7.01,11.64c.67,2.23.51,4.63-.47,6.74-.95,2-2.19,3.86-3.68,5.51-2.45,3.09-5.12,6.03-5.71,9.46-.34,3.25.04,6.54,1.13,9.63.88,2.63,1.42,5.37,1.62,8.14.12,2.13-.26,4.26-1.1,6.23-.53,1.23-1.37,2.3-2.45,3.09-.38.28-.82.49-1.27.61Z"/>
      <path class="cls-9" d="m1444.63,683.31l-22.06,63.72-92.25,4.9-15.39,34.31,96.32,9.8c18.59,7.63,39.86-1.25,47.49-19.85.21-.51.41-1.03.6-1.55l25.71-71.76-40.41-19.58Z"/>
      <path class="cls-9" d="m1635.33,1284.57s-67.59-214.74-69.04-221.7c-1.3-6.32,24.51-160.85,27.79-200.97l-91.34,3.41v.91l-38.82,2.16,34.75,438.99h42.03l-4.17-145.7c25.93,69.58,63.08,140.51,63.08,140.51l35.71-17.6Z"/>
      <path class="cls-12" d="m1538.25,1213.94c0-1.32-.51-48.82-.51-48.82-.51,2.84-16.1-41.22-15.73-43.89.2-1.4,16.25,92.71,16.25,92.71Z"/>
      <path class="cls-12" d="m1520.24,1100.34c-.22.87-.31,1.77-.27,2.67-.14,2.45-.14,4.9,0,7.35,0,1.54.22,3.21.42,5.02s.47,3.73.88,5.71c.87,4.34,2.03,8.61,3.46,12.79,3.04,8.9,6.42,16.67,8.8,22.3,1.13,2.45,2.11,4.78,2.94,6.64.3.87.71,1.69,1.23,2.45-.13-.85-.38-1.67-.74-2.45-.56-1.62-1.42-3.95-2.45-6.81-2.16-5.73-5.39-13.58-8.41-22.38-1.43-4.12-2.6-8.33-3.5-12.6-.44-1.96-.74-3.85-1-5.61s-.47-3.43-.59-4.9c-.29-3.04-.42-5.49-.49-7.21.05-1-.04-2.01-.27-2.99Z"/>
      <path class="cls-6" d="m1497.89,1309.59v-3.95l43.06-1.89.12,16.3-2.65.17c-11.84.69-60.17,2.7-68.06.32-8.85-2.65,27.52-10.96,27.52-10.96Z"/>
      <path class="cls-13" d="m1541.63,1319.08c-.24.02-.49.02-.74,0l-2.11.15-7.79.34c-6.57.27-15.66.51-25.68.56-10.02.05-19.14-.12-25.73-.32l-7.77-.32h-2.87c.24-.02.49-.02.74,0h2.13l7.79.15c6.57,0,15.66.2,25.68.15s19.14-.22,25.71-.39l7.79-.2h2.84v-.12Z"/>
      <path class="cls-13" d="m1483.84,1320.45c-.36-1.28-.85-2.52-1.47-3.7-.78-1.09-1.67-2.08-2.67-2.97,1.34.48,2.45,1.44,3.11,2.7.81,1.16,1.18,2.57,1.03,3.97Z"/>
      <path class="cls-13" d="m1496.54,1314s-.71-.66-1.35-1.64-1.03-1.84-.91-1.91.71.64,1.35,1.62,1.03,1.86.91,1.94Z"/>
      <path class="cls-13" d="m1500.02,1312.26c0,.12-.78-.34-1.52-1s-1.27-1.27-1.18-1.37.78.34,1.52,1,1.27,1.15,1.18,1.37Z"/>
      <path class="cls-13" d="m1502.2,1308.1c-.72.26-1.49.36-2.25.29-.75.1-1.51.02-2.23-.22.71-.26,1.47-.36,2.23-.29.76-.1,1.53-.03,2.25.22Z"/>
      <path class="cls-13" d="m1502.94,1305.26c-.73.47-1.58.73-2.45.74-.83.11-1.68,0-2.45-.34.81-.14,1.63-.2,2.45-.2.81-.14,1.63-.21,2.45-.2Z"/>
      <path class="cls-13" d="m1495.09,1310.25c-.92.17-1.85.17-2.77,0-.99-.12-1.97-.33-2.92-.64-.59-.16-1.16-.39-1.69-.69-.33-.19-.57-.5-.69-.86-.09-.42.07-.85.42-1.1,2.53-1.23,5.58-.17,6.81,2.37.15.3.26.62.35.94.05.24.05.49,0,.74-.28-.89-.71-1.72-1.27-2.45-.65-.73-1.5-1.26-2.45-1.52-1.08-.35-2.26-.26-3.28.25-.42.32-.25.83.22,1.13.5.27,1.03.49,1.57.66.92.3,1.86.54,2.82.71,1.84.39,2.89.39,2.89.47Z"/>
      <path class="cls-13" d="m1494.38,1310.4c-.36-.57-.48-1.25-.34-1.91.09-.72.35-1.41.76-2.01.47-.83,1.33-1.37,2.28-1.42.58.13.95.69.86,1.27-.06.44-.22.86-.47,1.23-.37.61-.81,1.17-1.3,1.69-.43.49-.96.87-1.57,1.1,0,0,.54-.49,1.3-1.37.44-.51.83-1.06,1.15-1.64.37-.59.64-1.64,0-1.76s-1.37.64-1.79,1.18c-.39.53-.66,1.14-.78,1.79-.1.62-.13,1.24-.1,1.86Z"/>
      <path class="cls-13" d="m1540.73,1307.36s-1.23,0-3.16.12c-5.14.62-9.49,4.11-11.2,8.99-.64,1.84-.69,3.09-.78,3.06s0-.32,0-.86c.06-.79.21-1.57.44-2.33.78-2.51,2.28-4.73,4.31-6.4,2.06-1.63,4.56-2.61,7.18-2.82.81-.1,1.64-.1,2.45,0,.26.04.52.11.76.22Z"/>
      <path class="cls-13" d="m1520.12,1315.65c-2.06.48-4.16.68-6.27.61-2.1.11-4.2-.08-6.25-.54,0-.15,2.79,0,6.25,0s6.25-.22,6.27-.07Z"/>
      <path class="cls-13" d="m1528.5,1315.57s-.22.59-.51,1.23-.44,1.23-.59,1.2-.22-.66.12-1.42.88-1.13.98-1Z"/>
      <path class="cls-13" d="m1531.66,1311.63s-.17.54-.61.98-.88.74-1,.64.17-.54.61-1,.88-.74,1-.61Z"/>
      <path class="cls-13" d="m1536.17,1309.81c0,.15-.59.15-1.23.37s-1.08.56-1.2.47.25-.69,1.03-.96,1.45-.02,1.4.12Z"/>
      <path class="cls-13" d="m1539.38,1308.93c0,.15-.17.37-.54.49s-.69.15-.74,0,.2-.37.54-.49.69-.12.74,0Z"/>
      <path class="cls-6" d="m1598.76,1305.79l-1.62-3.6,38.5-19.34,6.79,14.7-2.45,1.25c-10.51,5.47-53.77,27.08-61.96,28.16-9.04,1.3,20.73-21.18,20.73-21.18Z"/>
      <path class="cls-13" d="m1642.58,1296.51l-.64.39-1.89.98-6.96,3.53c-5.88,2.92-14.07,6.86-23.21,11.03-9.14,4.17-17.52,7.72-23.6,10.24l-7.23,2.92-1.96.76c-.23.1-.47.18-.71.22l.66-.32,1.94-.86,7.16-3.06c6.05-2.6,14.39-6.23,23.53-10.39,9.14-4.17,17.35-8.04,23.28-10.88l7.01-3.36,1.94-.91.69-.29Z"/>
      <path class="cls-13" d="m1590.5,1321.43c-.85-1.03-1.81-1.97-2.87-2.79-1.15-.68-2.38-1.22-3.65-1.62,2.88-.04,5.48,1.72,6.52,4.41h0Z"/>
      <path class="cls-13" d="m1599.35,1310.35s-.93-.29-1.91-.93-1.69-1.25-1.62-1.37.93.29,1.91.93,1.69,1.25,1.62,1.37Z"/>
      <path class="cls-13" d="m1601.75,1307.36c0,.12-.83,0-1.79-.29s-1.67-.66-1.64-.81c.62-.06,1.24.04,1.81.29.93.22,1.67.56,1.62.81Z"/>
      <path class="cls-13" d="m1602.1,1302.66c0,.15-.81.66-1.94,1.2-.65.39-1.38.63-2.13.71,0-.15.81-.66,1.91-1.2.66-.39,1.4-.63,2.16-.71Z"/>
      <path class="cls-13" d="m1601.61,1299.77s-.71.98-1.99,1.69c-.72.49-1.58.75-2.45.74.7-.47,1.45-.87,2.23-1.2,1.2-.66,2.08-1.35,2.21-1.23Z"/>
      <path class="cls-13" d="m1596.58,1307.56c-.75.51-1.58.89-2.45,1.13-.96.28-1.95.49-2.94.61-.6.07-1.21.07-1.81,0-.38-.03-.73-.2-.98-.49-.23-.36-.23-.82,0-1.18,1.54-1.86,4.18-2.38,6.3-1.23.61.32,1.14.76,1.57,1.3.29.39.42.64.39.66-.6-.67-1.33-1.23-2.13-1.64-.86-.41-1.83-.55-2.77-.42-1.13.12-2.17.68-2.89,1.57-.27.47,0,.86.66.93.56.05,1.13.05,1.69,0,.98-.1,1.94-.27,2.89-.51,1.4-.39,2.48-.81,2.48-.74Z"/>
      <path class="cls-13" d="m1595.9,1307.98c-.55-.39-.93-.96-1.08-1.62-.22-.69-.27-1.42-.15-2.13.09-.96.66-1.8,1.52-2.23.61-.2,2.03,1.05,2.13,1.52s-.71.22-.76.61c-.08.7-.24,1.38-.49,2.03-.18.63-.52,1.2-.98,1.67,0,0,.29-.66.64-1.76.18-.65.3-1.31.37-1.99,0-.69,0-1.74-.78-1.57s-1,1.13-1.18,1.81c-.15.64-.15,1.3,0,1.94.2.59.46,1.17.76,1.72Z"/>
      <path class="cls-13" d="m1636.95,1286.19s-1.18.42-2.84,1.42c-2.18,1.3-3.95,3.19-5.12,5.44-1.13,2.28-1.62,4.82-1.4,7.35.15,1.96.61,3.09.51,3.14-.16-.24-.28-.51-.37-.78-.24-.75-.42-1.52-.51-2.3-.72-5.34,1.95-10.57,6.69-13.14.69-.38,1.42-.7,2.18-.93.27-.11.56-.17.86-.2Z"/>
      <path class="cls-13" d="m1621.53,1302.22c-3.46,2.4-7.32,4.16-11.4,5.2,0-.15,2.57-1.13,5.71-2.45,3.14-1.32,5.61-2.87,5.69-2.74Z"/>
      <path class="cls-13" d="m1629.15,1298.71c.12,0,0,.61,0,1.32v1.35s-.49-.54-.49-1.35.37-1.4.49-1.32Z"/>
      <path class="cls-13" d="m1630.4,1293.81c.12,0,0,.56-.15,1.15s-.51,1.03-.64.98,0-.56.15-1.15.49-1.03.64-.98Z"/>
      <path class="cls-13" d="m1633.79,1290.21c0,.15-.49.37-.98.83s-.76.96-.88.91,0-.74.54-1.3,1.3-.44,1.32-.44Z"/>
      <path class="cls-13" d="m1636.36,1288.2s0,.39-.29.66-.56.42-.66.32,0-.39.29-.66.56-.42.66-.32Z"/>
      <path class="cls-11" d="m1588.15,789.36l-7.16-87.49,36.76.66s1.69-12.92-3.73-41.2c-3.33-17.35-14.88-27.99-27.84-34.31v-.25l-1.13-.29c-10.67-4.79-22.07-7.77-33.72-8.8l-45.22.51s-34.53-4.41-53.57,20.32c-7.35,9.48-30.17,74.41-30.17,74.41l54.29,26.13-5.07-36s1.03,26.1,4.36,34.31c1.84,4.61,7.35,18.92,7.35,18.92l-.71,43.18,105.56-10.1Z"/>
      <polygon class="cls-11" points="1563.23 689.17 1556.51 717.75 1619.82 717.75 1615.65 669.81 1563.23 689.17"/>
      <path class="cls-13" d="m1619.82,717.75c-2.77-.51-5.57-.79-8.38-.83-5.2-.29-12.25-.56-20.29-.51s-15.12.39-20.32.78c-2.81.1-5.61.44-8.36,1.03,2.81.22,5.63.22,8.43,0,5.17-.17,12.25-.37,20.24-.39s15.07,0,20.27.12c2.8.16,5.61.09,8.41-.2Z"/>
      <path class="cls-13" d="m1560.48,669.59c-.3,2.44-.37,4.9-.2,7.35,0,4.48.2,10.66.47,17.5.27,6.84.59,13.04.88,17.5.01,2.47.27,4.93.78,7.35.3-2.44.37-4.9.2-7.35,0-4.48-.2-10.69-.47-17.52-.27-6.84-.59-13.01-.88-17.5-.01-2.46-.27-4.92-.78-7.33Z"/>
      <g class="cls-8">
        <path d="m1502.89,694.34s14.07,104.33,53.62,101.56c0,0,17.82-.2,23.53-12.03v-4.66l-77.15-84.87Z"/>
      </g>
      <g class="cls-8">
        <polygon points="1560.48 675.74 1552.91 726.89 1557.81 735.86 1565.9 718.31 1562.47 718.21 1560.48 675.74"/>
      </g>
      <path class="cls-13" d="m1483.08,756.32c-.47-.76-.83-1.59-1.08-2.45-.61-1.59-1.42-3.92-2.45-6.84-2.45-7.6-4.48-15.33-6.05-23.16-1.57-7.83-2.57-15.77-2.99-23.75-.15-3.06-.2-5.54-.15-7.35-.06-.89,0-1.78.17-2.65.2,0,.34,3.77.86,9.8.69,7.91,1.81,15.77,3.36,23.55,1.81,9.12,3.99,17.28,5.66,23.14.78,2.72,1.45,5.05,1.99,6.96.34.88.57,1.81.69,2.74Z"/>
      <path class="cls-13" d="m1499.06,786.3c-.34,0-1.32-2.13-2.18-4.9-.74-1.7-1.07-3.54-.96-5.39,1.08,1.5,1.83,3.21,2.18,5.02.7,1.66,1.03,3.46.96,5.27Z"/>
      <path class="cls-13" d="m1504.53,785.9c-1.85-4.92-1.93-10.33-.22-15.29.19,2.55.19,5.1,0,7.65.27,2.54.34,5.1.22,7.65Z"/>
      <path class="cls-13" d="m1477.77,740.24c-.17.29-12.79-5.69-28.21-13.38s-27.79-14.21-27.65-14.53,12.79,5.69,28.21,13.38c15.42,7.7,27.79,14.21,27.65,14.53Z"/>
      <path class="cls-9" d="m1500.02,626.65c.27-12.4.34-25.44.34-25.44,0,0-15.91-3.06-18.68-23.99-2.65-19.95,4.75-66.78,4.75-66.78h0c23.23-8.77,47.37-.81,63.28,18.01h0l-3.95,100.65c-.47,11.69-10.88,20.61-23.38,20.02h0c-12.65-.61-22.65-10.66-22.38-22.47Z"/>
      <path class="cls-13" d="m1485.22,547.86c-.04,1.43,1.03,2.64,2.45,2.77,1.41.14,2.67-.9,2.81-2.31,0-.05,0-.09,0-.14.04-1.42-1.03-2.63-2.45-2.74-1.34-.2-2.59.72-2.79,2.06-.02.12-.03.25-.03.37Z"/>
      <path class="cls-13" d="m1484.24,544.35c.32.34,2.45-1.1,5.27-1s4.9,1.57,5.24,1.23-.15-.78-1.05-1.49c-1.23-.89-2.7-1.38-4.22-1.4-1.49-.06-2.96.37-4.19,1.23-.91.66-1.23,1.27-1.05,1.45Z"/>
      <path class="cls-13" d="m1514.41,549.67c-.06,1.43,1.02,2.65,2.45,2.77,1.34.2,2.59-.72,2.79-2.06.02-.13.03-.26.03-.4.06-1.43-1.03-2.64-2.45-2.74-1.34-.2-2.59.72-2.79,2.06-.02.12-.03.25-.03.37Z"/>
      <path class="cls-13" d="m1514.21,546.16c.32.37,2.45-1.08,5.27-1s4.9,1.57,5.27,1.23-.17-.78-1.08-1.47c-1.21-.91-2.68-1.41-4.19-1.42-1.5-.04-2.97.38-4.22,1.23-.88.66-1.2,1.27-1.05,1.45Z"/>
      <path class="cls-13" d="m1503.23,567.22c-1.5-.52-3.07-.84-4.66-.96-.74,0-1.42-.27-1.52-.76-.06-.77.13-1.53.54-2.18l2.3-5.51c2.14-4.69,3.91-9.54,5.27-14.51-2.51,4.5-4.66,9.2-6.42,14.04-.76,1.94-1.52,3.8-2.23,5.56-.48.88-.63,1.89-.44,2.87.2.54.63.96,1.18,1.13.41.12.83.18,1.25.2,1.57.24,3.15.28,4.73.12Z"/>
      <path class="cls-12" d="m1500.36,601.21c9.81.39,19.53-1.94,28.09-6.74,0,0-7.13,14.14-27.94,11.67l-.15-4.93Z"/>
      <path class="cls-13" d="m1523.43,537.81c-.59.91-2.79.51-5.24,0s-4.61-.93-4.9-1.99,2.28-2.45,5.56-1.79c3.28.66,5.17,2.99,4.58,3.77Z"/>
      <path class="cls-13" d="m1494.82,533.64c-.22,1.05-2.57,1.45-5.27,1.57s-5.07,0-5.39-1.08,1.96-2.6,5.22-2.74,5.66,1.25,5.44,2.25Z"/>
      <path class="cls-12" d="m1503.28,574.1c-.64-.15-1.29.15-1.59.74-.44.79-.16,1.79.63,2.23s1.79.16,2.23-.63c.28-.5.28-1.1,0-1.6-.36-.68-1.15-1.01-1.89-.81"/>
      <path class="cls-13" d="m1503.94,574.4c0-.12-.47-.83-1.72-.56-.76.2-1.36.79-1.57,1.54-.27.96.07,1.99.86,2.6.83.57,1.93.57,2.77,0,.67-.45,1.01-1.24.88-2.03-.25-1.3-1.2-1.49-1.25-1.32s.34.61.27,1.37c-.03.38-.25.72-.59.91-.39.22-.86.22-1.25,0-.35-.3-.52-.75-.44-1.2.06-.39.3-.73.66-.91.69-.42,1.3-.22,1.37-.39Z"/>
      <path class="cls-13" d="m1540.21,553.03c-2.45,5.73-8.53,10.17-7.7,16.37.54,3.99,3.11,7.72,2.62,11.74-.64,4.9-5.86,8.53-6.62,13.55-.91,6.15,5.1,10.93,7.47,16.67,3.5,8.38-.96,17.79-1.08,26.96.3,14.39,11.19,26.35,25.49,27.99,5.59.47,11.89-1.23,14.7-6.03,2.45-3.97,1.91-9.02,3.33-13.41,2.16-6.57,8.41-11.37,9.8-18.14,2.45-12.25-12.5-22.55-11.52-35.1.42-5.37,3.73-10.02,5.12-15.22,1.8-6.93.18-14.3-4.36-19.83-3.7-4.39-9.04-7.35-12.25-12.06-3.55-5.42-3.68-12.25-4.9-18.65-5.38-25.4-30.32-41.63-55.72-36.25-6.88,1.46-13.35,4.44-18.93,8.73,0,0-3.55,16.15,13.04,18.87,16.59,2.72,24.26-.42,26.13,6.23-.89,5.55.93,11.19,4.9,15.17,6.76,7.3,13.21,5.73,10.47,12.4Z"/>
      <path class="cls-6" d="m1566.56,665.05c-.51.02-1.02-.03-1.52-.15-1.44-.25-2.85-.64-4.22-1.15-5.06-1.94-9.5-5.22-12.84-9.48-2.34-2.94-4.18-6.26-5.44-9.8-1.43-4.04-2.19-8.29-2.23-12.57-.05-4.72.54-9.43,1.76-13.99.67-2.41,1.49-4.78,2.45-7.08,1.01-2.3,1.9-4.64,2.67-7.03.67-2.35.67-4.85,0-7.21-.72-2.32-1.64-4.57-2.77-6.72-1.14-2.13-2.1-4.35-2.87-6.64-.75-2.27-.93-4.68-.51-7.03.98-4.61,3.77-8.04,5.44-11.54,1.59-3.24,2.35-6.83,2.21-10.44-.22-5.28-2.14-10.35-5.47-14.46-1.29-1.44-2.67-2.79-4.14-4.04,1.72.97,3.25,2.23,4.53,3.73,3.57,4.1,5.67,9.28,5.98,14.7.2,3.77-.54,7.52-2.16,10.93-1.69,3.63-4.41,7.08-5.24,11.3s1.15,8.65,3.33,12.92c1.19,2.21,2.16,4.53,2.89,6.94.72,2.56.72,5.28,0,7.84-.82,2.47-1.76,4.9-2.82,7.28-.96,2.26-1.78,4.57-2.45,6.94-1.22,4.45-1.82,9.04-1.79,13.65-.08,7.85,2.46,15.51,7.21,21.76,3.17,4.21,7.4,7.52,12.25,9.58,3.65,1.42,5.76,1.64,5.73,1.79Z"/>
      <path class="cls-6" d="m1564.11,541.39c-1.19.31-2.42.49-3.65.54-3.36.36-6.76.27-10.1-.27-5.11-.76-9.71-3.54-12.74-7.72-1.4-2.62-2.52-5.38-3.33-8.23-1.05-2.85-3.01-5.28-5.59-6.89-5.37-3.41-11.67-3.82-17.16-4.48-5.06-.25-9.98-1.79-14.29-4.46-2.89-1.91-4.97-4.82-5.86-8.16-.21-.91-.27-1.84-.17-2.77,0-.64.15-.96.2-.96.03,1.21.18,2.42.47,3.6,1.01,3.13,3.1,5.8,5.88,7.55,4.23,2.47,9,3.85,13.9,4.02,5.49.64,12.01.96,17.74,4.58,2.81,1.76,4.95,4.41,6.08,7.52.77,2.78,1.83,5.48,3.16,8.04,2.85,3.92,7.13,6.56,11.91,7.35,3.23.6,6.52.82,9.8.66,1.25-.07,2.5-.05,3.75.07Z"/>
      <path class="cls-6" d="m1558.03,521.44c-.92.31-1.89.45-2.87.42-4.57.03-8.97-1.73-12.25-4.9-1.5-1.5-2.78-3.21-3.8-5.07-2.21-3.73-4.34-8.31-8.92-10.22-4.42-1.48-9.12-1.89-13.72-1.2-3.89.55-7.83.55-11.71,0-2.7-.38-5.25-1.5-7.35-3.24-.54-.47-1.02-1.02-1.42-1.62-.29-.42-.42-.65-.37-.66.07-.02.69.78,2.11,1.89,2.1,1.49,4.53,2.43,7.08,2.74,3.82.43,7.67.36,11.47-.2,4.81-.79,9.73-.36,14.34,1.23,2.37,1.06,4.39,2.76,5.86,4.9,1.29,1.91,2.48,3.89,3.55,5.93.97,1.78,2.16,3.43,3.55,4.9,1.23,1.25,2.64,2.29,4.19,3.11,2.28,1.19,4.79,1.88,7.35,2.03,1.89-.02,2.89-.17,2.92-.05Z"/>
      <path class="cls-6" d="m1573.86,659.76c-.12,0,.66-1.62,1.57-4.66,1.23-4.27,1.77-8.7,1.62-13.14-.18-6.57-1.97-12.99-5.22-18.7-1.79-3.21-4.51-6.08-6.74-9.61-1.18-1.8-2.01-3.8-2.45-5.91-.39-2.22-.2-4.49.54-6.62,1.37-4.24,3.82-7.79,4.36-11.69.54-3.9-1.32-7.35-3.19-10.61-.96-1.59-1.84-3.22-2.62-4.9-.72-1.63-1.19-3.35-1.4-5.12-.23-3.11-.13-6.24.29-9.34.78-4.37.38-8.88-1.18-13.04-.69-1.46-1.68-2.76-2.89-3.82,0,0,.12,0,.29.15.29.14.56.33.78.56.96.8,1.74,1.79,2.28,2.92,1.77,4.2,2.32,8.81,1.59,13.31-.34,3.04-.38,6.1-.12,9.14.6,3.42,1.96,6.67,3.97,9.51,1.05,1.66,1.94,3.4,2.67,5.22.77,1.96,1.03,4.09.74,6.18-.59,4.29-3.11,7.92-4.39,11.91-.67,1.93-.85,3.99-.51,6,.43,1.95,1.21,3.8,2.3,5.47,2.08,3.41,4.9,6.32,6.69,9.68,3.28,5.9,5.04,12.53,5.1,19.29.08,4.52-.62,9.02-2.06,13.31-.39,1.16-.87,2.29-1.42,3.38-.15.4-.36.78-.61,1.13Z"/>
      <path class="cls-13" d="m1474.04,1116.42s-16.52-156.46-17.47-214.27c-.96-57.81,26-114.87,26-114.87l105.58-4.39s20.88,58.65,21.25,83.33c.74,47.89-12.72,95.17-11.18,133.15l3.53,117.15"/>
      <path class="cls-3" d="m1605.31,924.06c-.55.48-1.13.92-1.74,1.32l-.96.66-1.03,1c-.91.78-1.73,1.66-2.45,2.62-3.41,4.17-5.88,11.64-8.26,20.93-1.21,5.15-3.01,10.15-5.34,14.9-.71,1.3-1.53,2.54-2.45,3.7-.44.59-.86,1.23-1.37,1.79l-1.62,1.62c-2.32,2.16-5.01,3.89-7.94,5.1-5.91,2.6-12.6,3.82-18.68,6.89-6.23,3.35-11.04,8.83-13.55,15.44-2.99,6.64-4.9,13.6-7.35,20.12s-5.76,12.74-11.03,16.71c-5.04,3.5-11.02,5.39-17.16,5.42-5.69.34-10.96.17-15.69.88-4.26.44-8.33,1.98-11.81,4.46-2.55,1.99-4.45,4.68-5.49,7.74-.66,1.93-.8,4-.42,6,.29,1.37.66,2.03.59,2.06-.39-.62-.68-1.3-.83-2.01-.52-2.04-.45-4.19.2-6.2.97-3.21,2.9-6.06,5.51-8.16,3.57-2.7,7.81-4.39,12.25-4.9,4.9-.78,10.12-.69,15.73-1.05,5.96-.04,11.76-1.89,16.64-5.29,4.95-4.33,8.61-9.94,10.56-16.22,2.45-6.45,4.24-13.43,7.35-20.19,2.64-6.88,7.67-12.58,14.17-16.05,6.32-3.14,13.01-4.34,18.77-6.84,2.82-1.17,5.41-2.83,7.65-4.9l1.54-1.54c.49-.54.91-1.15,1.35-1.72.86-1.11,1.63-2.3,2.28-3.55,2.35-4.68,4.16-9.62,5.42-14.7,2.45-9.26,5.12-16.84,8.72-21.03.72-.95,1.54-1.83,2.45-2.6.39-.34.74-.69,1.08-.96l1-.64c.61-.31,1.24-.58,1.89-.81Z"/>
      <path class="cls-3" d="m1605.94,851.66c.11.69.16,1.39.15,2.08,0,2.02-.25,4.04-.74,6-2.11,7.17-6.26,13.57-11.94,18.43-3.75,3.45-7.86,6.48-12.25,9.04-4.73,2.79-9.95,5.47-15.32,8.5-5.64,3.02-10.89,6.72-15.64,11-4.87,4.83-8.88,10.46-11.86,16.64-3.01,6.26-6.44,12.32-10.27,18.11-1.95,2.7-4.2,5.17-6.72,7.35-2.48,2.11-5.2,3.91-8.11,5.37-5.27,2.59-10.75,4.7-16.4,6.3-5.24,1.62-10.15,3.06-14.41,4.9-3.87,1.54-7.55,3.51-10.98,5.88-2.58,1.79-4.9,3.92-6.89,6.35-1.67,2.1-3.06,4.41-4.14,6.86.17-.68.4-1.34.69-1.99.8-1.85,1.83-3.6,3.06-5.2,1.96-2.53,4.27-4.76,6.86-6.62,3.44-2.45,7.15-4.51,11.05-6.13,4.72-1.92,9.54-3.6,14.44-5.02,5.56-1.64,10.97-3.76,16.18-6.32,2.76-1.44,5.35-3.18,7.72-5.2,2.42-2.15,4.59-4.57,6.47-7.21,3.78-5.77,7.18-11.78,10.17-17.99,3.07-6.32,7.22-12.06,12.25-16.96,4.83-4.35,10.18-8.09,15.93-11.13,5.39-3.01,10.61-5.64,15.34-8.41,4.39-2.48,8.49-5.42,12.25-8.77,5.63-4.71,9.81-10.92,12.06-17.92.63-2.62.97-5.3,1.03-7.99Z"/>
      <path class="cls-3" d="m1457.11,910.33c-.1-.15-.17-.32-.22-.49-.18-.47-.34-.96-.47-1.45-.42-1.95-.34-3.97.25-5.88,1.37-4.9,6.79-11.2,15.51-14.31,4.36-1.49,9.29-2.45,14.44-3.73,8.67-1.44,16.11-6.98,19.97-14.88,1.39-2.86,2.61-5.79,3.65-8.8,1.92-6.52,4.52-12.82,7.77-18.8,3.72-5.87,9.37-10.26,15.98-12.43,6.01-1.95,12.14-3.51,18.36-4.66,5.54-1.06,10.91-2.9,15.95-5.44,4.27-2.44,7.95-5.79,10.78-9.8,4.18-5.8,6.57-12.7,6.86-19.85.01-2.62-.16-5.24-.51-7.84.74,2.55,1.08,5.19,1,7.84-.1,7.3-2.4,14.4-6.62,20.37-2.87,4.15-6.63,7.61-11,10.12-5.11,2.64-10.56,4.55-16.2,5.66-6.16,1.17-12.23,2.73-18.19,4.68-6.34,2.08-11.77,6.3-15.34,11.94-3.2,5.89-5.77,12.1-7.67,18.53-1.06,3.06-2.31,6.05-3.75,8.95-1.45,2.79-3.3,5.34-5.49,7.6-4.3,3.93-9.6,6.6-15.32,7.72-5.2,1.32-10.1,2.16-14.39,3.58-8.5,2.89-13.9,8.85-15.34,13.6-.59,1.83-.75,3.78-.47,5.69.21.68.35,1.38.44,2.08Z"/>
      <path class="cls-3" d="m1596.88,1042.68c.1.51.16,1.03.17,1.54.05,1.48-.11,2.97-.47,4.41-1.54,5.31-4.8,9.97-9.26,13.23-2.98,2.38-6.28,4.32-9.8,5.78-3.75,1.59-7.89,2.87-12.25,4.22-4.53,1.32-8.96,2.96-13.26,4.9-4.47,2.13-8.47,5.12-11.79,8.8-3.58,3.73-6.67,7.82-10.1,11.45-3.28,3.51-7.09,6.49-11.3,8.82-7.15,3.9-15.16,5.99-23.31,6.08-5.46.06-10.88-.85-16.03-2.67-1.4-.48-2.76-1.06-4.07-1.74-.48-.2-.93-.45-1.35-.76.49.14.98.31,1.45.51,1.35.58,2.72,1.08,4.12,1.52,5.14,1.61,10.5,2.36,15.88,2.23,7.97-.21,15.77-2.33,22.74-6.2,4.07-2.31,7.77-5.22,10.96-8.65,3.36-3.58,6.42-7.65,10.07-11.47,3.51-3.81,7.74-6.89,12.45-9.07,4.36-1.95,8.86-3.59,13.45-4.9,4.31-1.32,8.43-2.45,12.25-4.07,3.42-1.4,6.63-3.25,9.56-5.51,4.39-3.1,7.67-7.54,9.34-12.65.36-1.91.54-3.86.54-5.81Z"/>
      <path class="cls-9" d="m1584.84,717.84l-20.44.49c-.79,4.12-2.35,8.06-4.61,11.59-17.16-29.65-30.32-69.36-33.6-85.31.49-1.59,1.05-3.36,1.76-5.32.51-2.98.42-6.03-.27-8.97-.59-3.55-1.57-8.33-1.86-10.54-.91-6.76-2.01-7.82-4.36-7.06-3.19,1.05,1.32,18.94-1.3,19.34-1.42.2-3.14-5.93-3.63-10.96s-2.79-20.51-4.44-21.54c-2.45-1.52-4.58.88-3.95,5.88.64,5,1.4,20.19-1.25,20.42s-4.9-25.46-4.9-25.46c0,0,.42-5.59-2.67-5.47-5.54.25-1.2,27.3-.74,29.88.34,1.76-2.45,2.11-2.79.17s-1.62-25.66-7.35-25.46c-4.36,0,3.36,22.28.91,27.42s-4.12-17.45-8.26-17.16c-1.54.12-2.7.42.15,13.19,2.72,10.15,6,20.13,9.8,29.92,6.57,35.41,35.39,148.72,80.56,127.98,25.29-11.62,35.54-63.03,35.54-63.03h-22.3Z"/>
      <path class="cls-12" d="m1497.72,626.53c.19.05.4.05.59,0,.61-.19.99-.79.91-1.42,0-1.52-.29-3.73-.64-6.59-.57-3.46-.95-6.94-1.13-10.44,0-2.06,0-4.26.12-6.59.04-1.18.16-2.36.37-3.53.2-1.1.93-2.45,1.79-2.23h.15c.86,0,1.54.64,1.81,1.67.3,1.07.42,2.18.34,3.28h0c.51,6.86,1.38,13.7,2.62,20.46.2.91.39,1.84.69,2.77.13.48.29.94.49,1.4.13.25.26.5.42.74.22.36.6.6,1.03.64.73-.08,1.34-.59,1.54-1.3.21-.48.37-.98.47-1.49.19-.99.32-1.99.39-2.99.22-4.08.17-8.18-.17-12.25-.31-2.04-.39-4.1-.25-6.15.09-.89.52-1.7,1.2-2.28.32-.19.7-.23,1.05-.12.21.05.41.13.59.25.12.09.22.22.27.37.77,1.99,1.34,4.05,1.69,6.15.44,2.16.81,4.39,1.15,6.62s.66,4.48.93,6.76c.21,2.35.59,4.69,1.13,6.98.29,1.18.66,2.33,1.1,3.46.25.63.6,1.22,1.03,1.74.34.44.9.65,1.45.54.5-.17.89-.58,1-1.1.29-1.25.38-2.54.27-3.82,0-1.23-.15-2.45-.27-3.63-.17-2.06-.37-4.09-.44-6.1-.06-.99-.06-1.98,0-2.97.05-.44.16-.87.32-1.27.05-.13.13-.26.22-.37h.32c1.62-.66,2.16,1.59,2.6,3.41s.61,3.87,1,5.81c.64,3.85,1.47,7.7,1.89,11.37.28,1.76.22,3.56-.2,5.29-.59,1.76-1.18,3.5-1.74,5.24v.32c2.87,12.04,6.53,23.88,10.96,35.44,3.87,10.46,7.77,19.61,11.18,26.96,3.41,7.35,6.49,13.11,8.6,16.98l2.45,4.39c.27.52.59,1.02.96,1.47-.21-.54-.46-1.07-.76-1.57l-2.45-4.48c-2.01-3.95-4.9-9.8-8.23-17.16-3.33-7.35-7.11-16.49-10.88-26.96-4.32-11.54-7.9-23.35-10.73-35.34v.34c.56-1.72,1.13-3.46,1.72-5.2.51-1.91.61-3.91.29-5.86-.44-3.85-1.25-7.57-1.89-11.45-.37-1.91-.61-3.87-1-5.88-.03-1.03-.2-2.06-.51-3.04-.28-.6-.76-1.08-1.35-1.37-.63-.21-1.31-.21-1.94,0h-.39c-.21.07-.4.17-.56.32-.27.23-.48.53-.61.86-.22.53-.37,1.09-.42,1.67-.07,1.06-.07,2.13,0,3.19,0,2.06.29,4.12.47,6.18,0,1.2.2,2.45.25,3.55.1,1.11.04,2.22-.17,3.31,0,.25-.2.2,0,.32h0l-.15-.15c-.31-.4-.56-.85-.74-1.32-.43-1.06-.78-2.15-1.05-3.26-.54-2.23-.91-4.5-1.1-6.79-.26-2.3-.58-4.58-.96-6.84-.34-2.25-.74-4.46-1.18-6.67-.37-2.25-.99-4.44-1.86-6.54-.17-.35-.43-.65-.76-.86-.29-.17-.59-.3-.91-.39-.71-.19-1.46-.08-2.08.29-1.02.76-1.68,1.92-1.81,3.19-.16,1.11-.16,2.24,0,3.36,0,1.05.25,2.08.32,3.11.34,4.01.41,8.04.22,12.06-.06.95-.18,1.9-.37,2.84-.07.44-.19.87-.37,1.27-.06.16-.15.31-.27.44,0,.22-.17,0-.15.29v-.32c-.11-.17-.21-.34-.29-.51-.17-.39-.32-.83-.47-1.25-.27-.88-.47-1.79-.66-2.67-1.28-6.71-2.2-13.48-2.77-20.29h0c.07-1.23-.07-2.47-.42-3.65-.16-.62-.49-1.18-.96-1.62-.48-.47-1.14-.72-1.81-.69h.15c-.85-.12-1.69.27-2.13,1-.36.58-.61,1.23-.74,1.91-.21,1.22-.32,2.44-.34,3.68v6.67c.23,3.52.68,7.02,1.35,10.49.42,2.84.74,5.05.88,6.54.1.54-.2,1.07-.71,1.27-.74.07-.96.1-.93.12Z"/>
      <path class="cls-9" d="m1338.09,751.59c-4.78-.1-9.56.45-14.19,1.64-12.67,3.33-34.51,16.57-35.41,32.91h15.88s-8.9,18.92-6.3,17.16c6.79-4.56,20.27-18.26,20.27-18.26l19.75-33.45Z"/>
      <path class="cls-13" d="m1554.57,466.73c-.37,0-1.79-13.09-3.21-29.41s-2.3-29.41-1.96-29.41,1.79,13.09,3.21,29.41,2.3,29.41,1.96,29.41Z"/>
      <path class="cls-13" d="m1624.2,408.92c.27.2-10.44,15.76-23.94,34.75-13.5,18.99-24.7,34.31-25,34.02s10.44-15.76,23.94-34.75c13.5-18.99,24.7-34.21,25-34.02Z"/>
      <path class="cls-13" d="m1653.12,479.45c0,.34-12.45,3.21-27.94,6.4-15.49,3.19-28.14,5.49-28.21,5.15s12.43-3.21,27.94-6.4c15.51-3.19,28.04-5.49,28.21-5.15Z"/>
    </g>
    <g id="freepik--Folder--inject-133">
      <path class="cls-11" d="m819.67,816.07l-86.76,445.56-11.27,58.33,578.39-2.79c25.98-.12,49.02-23.18,57.32-57.45l102.59-420.63c6.35-26-7.57-53.06-27.28-53.04l-585.55.61c-12.74-.02-24.17,12.03-27.45,29.41Z"/>
      <g class="cls-4">
        <path d="m819.67,816.07l-86.76,445.56-11.27,58.33,578.39-2.79c25.98-.12,49.02-23.18,57.32-57.45l102.59-420.63c6.35-26-7.57-53.06-27.28-53.04l-585.55.61c-12.74-.02-24.17,12.03-27.45,29.41Z"/>
      </g>
      <path class="cls-11" d="m1244.62,1231.39l-61.27-493.62c-2.45-20.22-18.6-35.32-37.64-35.24l-134.3.42c-10.09.11-19.68,4.37-26.54,11.76l-63.72,67.81-373.5,2.01c-22.82.12-40.36,21.74-37.35,46l56.88,456.22c2.45,20.19,18.6,35.27,37.6,35.24l651.06-1.3c72.5,1.49,79.43-19.9,79.43-19.9-83.23,18.41-90.63-69.28-90.63-69.41Z"/>
      <g class="cls-4">
        <polygon class="cls-2" points="963.88 1132.67 941.92 1156.25 772.81 1004.1 794.77 980.52 963.88 1132.67"/>
        <polygon class="cls-2" points="932.73 975.3 956.99 997.14 803.99 1161.47 779.7 1139.63 932.73 975.3"/>
      </g>
    </g>
    <g id="freepik--speech-bubble--inject-133">
      <path class="cls-11" d="m1337.58,495.6c-1.62-.68-2.7-2.24-2.77-3.99l-.98-22.74c-.12-2.51,1.82-4.65,4.33-4.78.43-.02.86.02,1.28.12,3.84.83,7.84.04,11.08-2.18,2.98-1.89,5.05-4.92,5.71-8.38.45-3.5-.54-7.04-2.74-9.8-2.32-3.14-5.79-5.23-9.66-5.81-7.94-.44-15.14,4.63-17.4,12.25-.79,2.41-3.37,3.72-5.78,2.94-2.26-.74-3.58-3.07-3.04-5.39,3.44-12.01,14.82-19.95,27.28-19.04,6.35.85,12.09,4.23,15.91,9.39,3.71,4.78,5.33,10.85,4.49,16.84-1.13,5.98-4.67,11.23-9.8,14.51-3.68,2.48-7.97,3.88-12.4,4.04l.76,17.55c.09,2.53-1.88,4.66-4.41,4.75-.67.02-1.34-.1-1.96-.36l.12.1Z"/>
      <path class="cls-11" d="m1344.3,504.92c.14,2.07-1.41,3.86-3.48,4s-3.86-1.41-4-3.48c-.14-2.07,1.41-3.86,3.48-4,0,0,0,0,0,0,2.05-.15,3.84,1.39,3.99,3.44,0,.01,0,.03,0,.04Z"/>
      <path class="cls-13" d="m1258.84,463.52c.11-.48.18-.98.22-1.47,0-1.08.27-2.45.47-4.39.24-2.38.64-4.74,1.2-7.06.32-1.37.49-2.89.98-4.44s.98-3.21,1.52-4.9c2.84-8.38,6.97-16.26,12.25-23.36,6.92-9.19,15.7-16.82,25.76-22.4,5.73-3.23,11.82-5.75,18.16-7.5,6.84-1.81,13.88-2.74,20.95-2.74,3.73-.06,7.45.14,11.15.59,1.89.2,3.75.69,5.64,1,1.91.33,3.79.79,5.64,1.37,7.72,2.16,15.07,5.49,21.79,9.88,14.93,9.68,26.3,23.96,32.4,40.68,3.28,8.96,4.94,18.43,4.9,27.96.1,9.83-1.64,19.58-5.12,28.77l-1.1,2.79-.15.37.15.37c6.15,14.14,12.25,28.04,18.01,41.49l1.03-1.18-36.76-14.09-.44-.17-.37.34c-9.73,9.42-21.63,16.29-34.65,20-22.51,6.2-46.6,2.46-66.17-10.27-7.93-5.2-14.91-11.7-20.66-19.24-8.33-11-13.73-23.94-15.69-37.6-.29-2.45-.54-4.51-.76-6.37s0-3.38-.12-4.68,0-2.16,0-2.87c.27-.04.45-.29.41-.56-.04-.27-.29-.45-.56-.41-.27.04-.45.29-.41.56.03.21.2.38.41.41v7.6c0,1.86.42,3.99.66,6.42.81,5.89,2.21,11.69,4.19,17.3,2.81,7.41,6.58,14.41,11.22,20.83,5.77,7.67,12.81,14.3,20.81,19.61,19.82,13.05,44.28,16.96,67.18,10.73,13.18-3.74,25.24-10.68,35.1-20.19l-.81.17,36.76,14.17,1.84.71-.81-1.89c-5.83-13.45-11.86-27.33-17.99-41.49v.71l1.13-2.87c3.58-9.39,5.36-19.36,5.24-29.41.08-9.74-1.58-19.42-4.9-28.58-6.23-17.05-17.85-31.6-33.11-41.44-6.88-4.49-14.42-7.88-22.35-10.05-1.87-.59-3.79-1.04-5.73-1.35-1.91-.34-3.8-.83-5.71-1-3.75-.47-7.52-.68-11.3-.64-7.19.03-14.34,1-21.27,2.89-6.42,1.82-12.6,4.41-18.41,7.7-10.16,5.72-18.99,13.53-25.91,22.92-5.27,7.21-9.34,15.22-12.08,23.72-.51,1.76-1,3.46-1.45,4.9-.39,1.48-.7,2.97-.93,4.48-.53,2.34-.87,4.72-1.03,7.11-.15,1.89-.25,3.33-.32,4.41-.1.53-.14,1.08-.1,1.62Z"/>
    </g>
  </g>
</svg>